<svg width="104" height="27" viewBox="0 0 104 27" fill="none" xmlns="http://www.w3.org/2000/svg">
<path d="M-2.65241e-06 26.5398V0.357961H6.32812V21.4006H17.2202V26.5398H-2.65241e-06ZM45.1882 13.4489C45.1882 16.3296 44.6342 18.7713 43.5263 20.7742C42.4183 22.777 40.9183 24.2983 39.0263 25.3381C37.1428 26.3778 35.0291 26.8977 32.6854 26.8977C30.3331 26.8977 28.2152 26.3736 26.3317 25.3253C24.4482 24.277 22.9524 22.7557 21.8445 20.7614C20.745 18.7585 20.1953 16.321 20.1953 13.4489C20.1953 10.5682 20.745 8.12643 21.8445 6.12359C22.9524 4.12075 24.4482 2.59944 26.3317 1.55967C28.2152 0.519892 30.3331 5.96046e-06 32.6854 5.96046e-06C35.0291 5.96046e-06 37.1428 0.519892 39.0263 1.55967C40.9183 2.59944 42.4183 4.12075 43.5263 6.12359C44.6342 8.12643 45.1882 10.5682 45.1882 13.4489ZM38.7195 13.4489C38.7195 11.7443 38.4766 10.304 37.9908 9.12785C37.5135 7.95171 36.8232 7.06108 35.9197 6.45597C35.0249 5.85086 33.9467 5.5483 32.6854 5.5483C31.4325 5.5483 30.3544 5.85086 29.451 6.45597C28.5476 7.06108 27.853 7.95171 27.3672 9.12785C26.8899 10.304 26.6513 11.7443 26.6513 13.4489C26.6513 15.1534 26.8899 16.5938 27.3672 17.7699C27.853 18.946 28.5476 19.8367 29.451 20.4418C30.3544 21.0469 31.4325 21.3494 32.6854 21.3494C33.9467 21.3494 35.0249 21.0469 35.9197 20.4418C36.8232 19.8367 37.5135 18.946 37.9908 17.7699C38.4766 16.5938 38.7195 15.1534 38.7195 13.4489ZM67.0646 8.91052C66.9197 8.37359 66.7067 7.90057 66.4254 7.49148C66.1442 7.07387 65.799 6.72018 65.3899 6.4304C64.9808 6.14063 64.5121 5.9233 63.9837 5.77842C63.4553 5.62501 62.8757 5.5483 62.245 5.5483C60.9751 5.5483 59.8757 5.85512 58.9467 6.46876C58.0263 7.08239 57.3146 7.97728 56.8118 9.15342C56.3089 10.321 56.0575 11.7401 56.0575 13.4105C56.0575 15.0895 56.3004 16.5213 56.7862 17.706C57.272 18.8906 57.9751 19.794 58.8956 20.4162C59.816 21.0384 60.9325 21.3494 62.245 21.3494C63.4041 21.3494 64.3842 21.1619 65.1854 20.7869C65.995 20.4034 66.6087 19.8622 67.0263 19.1634C67.4439 18.4645 67.6527 17.6421 67.6527 16.696L68.8288 16.8367H62.4624V12.2216H73.7507V15.6861C73.7507 18.0298 73.2521 20.0369 72.255 21.7074C71.2663 23.3778 69.9027 24.6605 68.1641 25.5554C66.4339 26.4503 64.4439 26.8977 62.1939 26.8977C59.6967 26.8977 57.5021 26.3565 55.6101 25.2742C53.718 24.1918 52.2436 22.6492 51.1868 20.6463C50.13 18.6349 49.6016 16.2486 49.6016 13.4872C49.6016 11.3395 49.9212 9.43467 50.5604 7.77273C51.1996 6.10228 52.0902 4.68751 53.2322 3.52842C54.3828 2.36932 55.7124 1.49148 57.2209 0.894892C58.7379 0.298301 60.37 5.96046e-06 62.1172 5.96046e-06C63.6342 5.96046e-06 65.0447 0.217336 66.3487 0.651995C67.6612 1.08665 68.8203 1.70029 69.826 2.4929C70.8402 3.28552 71.6626 4.22728 72.2933 5.31819C72.924 6.4091 73.316 7.60654 73.4695 8.91052H67.0646ZM103.192 13.4489C103.192 16.3296 102.638 18.7713 101.53 20.7742C100.422 22.777 98.9222 24.2983 97.0302 25.3381C95.1467 26.3778 93.033 26.8977 90.6893 26.8977C88.337 26.8977 86.2191 26.3736 84.3356 25.3253C82.4521 24.277 80.9563 22.7557 79.8484 20.7614C78.7489 18.7585 78.1992 16.321 78.1992 13.4489C78.1992 10.5682 78.7489 8.12643 79.8484 6.12359C80.9563 4.12075 82.4521 2.59944 84.3356 1.55967C86.2191 0.519892 88.337 5.96046e-06 90.6893 5.96046e-06C93.033 5.96046e-06 95.1467 0.519892 97.0302 1.55967C98.9222 2.59944 100.422 4.12075 101.53 6.12359C102.638 8.12643 103.192 10.5682 103.192 13.4489ZM96.7234 13.4489C96.7234 11.7443 96.4805 10.304 95.9947 9.12785C95.5174 7.95171 94.8271 7.06108 93.9236 6.45597C93.0288 5.85086 91.9506 5.5483 90.6893 5.5483C89.4364 5.5483 88.3583 5.85086 87.4549 6.45597C86.5515 7.06108 85.8569 7.95171 85.3711 9.12785C84.8938 10.304 84.6552 11.7443 84.6552 13.4489C84.6552 15.1534 84.8938 16.5938 85.3711 17.7699C85.8569 18.946 86.5515 19.8367 87.4549 20.4418C88.3583 21.0469 89.4364 21.3494 90.6893 21.3494C91.9506 21.3494 93.0288 21.0469 93.9236 20.4418C94.8271 19.8367 95.5174 18.946 95.9947 17.7699C96.4805 16.5938 96.7234 15.1534 96.7234 13.4489Z" fill="black"/>
</svg>
